<?xml version="1.0" encoding="utf-8"?>
<!-- Generator: Adobe Illustrator 24.3.0, SVG Export Plug-In . SVG Version: 6.00 Build 0)  -->
<svg version="1.1" id="Layer_1" xmlns="http://www.w3.org/2000/svg" xmlns:xlink="http://www.w3.org/1999/xlink" x="0px" y="0px"
	 viewBox="0 0 95.7 95.7" style="enable-background:new 0 0 95.7 95.7;" xml:space="preserve">
<style type="text/css">
	.st0{fill:url(#SVGID_1_);enable-background:new    ;}
	.st1{fill:#FFFFFF;}
</style>
<linearGradient id="SVGID_1_" gradientUnits="userSpaceOnUse" x1="1.4" y1="47.85" x2="94.3" y2="47.85">
	<stop  offset="0" style="stop-color:#8671E8"/>
	<stop  offset="1" style="stop-color:#9685F7"/>
</linearGradient>
<path class="st0" d="M25.8,85.1L10.5,69.8c-12.2-12.2-12.2-31.9,0-44l15.3-15.3c12.2-12.2,31.9-12.2,44,0l15.3,15.3
	c12.2,12.2,12.2,31.9,0,44L69.9,85.1C57.7,97.3,38,97.3,25.8,85.1z"/>
<g>
	<path class="st1" d="M47.7,47.2c5.1,0,9.4-4.2,9.4-9.4s-4.2-9.4-9.4-9.4s-9.4,4.2-9.4,9.4S42.6,47.2,47.7,47.2z M47.7,31.2
		c3.7,0,6.6,2.9,6.6,6.6c0,3.7-2.9,6.6-6.6,6.6c-3.7,0-6.6-2.9-6.6-6.6C41.1,34.2,44,31.2,47.7,31.2z"/>
	<path class="st1" d="M63.9,61.5c-2.6-6.6-8.9-10.8-16.1-10.8s-13.5,4.2-16.1,10.8c-0.4,1.3-0.3,2.8,0.4,4c0.7,1.2,2,1.8,3.4,1.8
		h24.6c1.3,0,2.6-0.7,3.4-1.8C64.2,64.3,64.4,62.8,63.9,61.5z M61.2,63.9c-0.3,0.4-0.7,0.6-1.2,0.6H35.4c-0.4,0-0.9-0.3-1.2-0.6
		c-0.3-0.4-0.3-0.9-0.1-1.3c2.2-5.6,7.6-9.2,13.6-9.2s11.4,3.7,13.6,9.1C61.6,63,61.5,63.6,61.2,63.9z"/>
</g>
</svg>
