<?xml version="1.0" encoding="utf-8"?>
<!-- Generator: Adobe Illustrator 24.3.0, SVG Export Plug-In . SVG Version: 6.00 Build 0)  -->
<svg version="1.1" id="Layer_1" xmlns="http://www.w3.org/2000/svg" xmlns:xlink="http://www.w3.org/1999/xlink" x="0px" y="0px"
	 viewBox="0 0 95.7 95.7" style="enable-background:new 0 0 95.7 95.7;" xml:space="preserve">
<style type="text/css">
	.st0{fill:url(#SVGID_1_);enable-background:new    ;}
	.st1{fill:#FFFFFF;}
</style>
<linearGradient id="SVGID_1_" gradientUnits="userSpaceOnUse" x1="1.4" y1="47.85" x2="94.3" y2="47.85">
	<stop  offset="0" style="stop-color:#8671E8"/>
	<stop  offset="1" style="stop-color:#9685F7"/>
</linearGradient>
<path class="st0" d="M25.8,85.1L10.5,69.8c-12.2-12.2-12.2-31.9,0-44l15.3-15.3c12.2-12.2,31.9-12.2,44,0l15.3,15.3
	c12.2,12.2,12.2,31.9,0,44L69.9,85.1C57.7,97.3,38,97.3,25.8,85.1z"/>
<path class="st1" d="M47.8,28.1c-10.9,0-19.8,8.9-19.8,19.8c0,7.7,4.4,14.5,10.9,17.7h0.1c2.7,1.3,5.6,2.1,8.7,2.1
	c5.3,0,10.3-2.1,14-5.9c3.7-3.7,5.8-8.7,5.8-14C67.8,37.1,58.9,28.1,47.8,28.1z M47.8,30.9c9.5,0,17,7.7,17,17c0,2.1-0.3,4-1,5.8
	L57.2,47c-0.3-0.3-0.6-0.4-1-0.4c-0.3,0-0.7,0.1-1,0.4L52,50.1L41.8,39.7c-0.3-0.3-0.6-0.4-1-0.4l0,0c-0.3,0-0.7,0.1-1,0.4l-8.9,8.9
	c0-0.1,0-0.4,0-0.6C30.9,38.5,38.5,30.9,47.8,30.9z M31.4,52l9.3-9.3l9.3,9.3L39.4,62.6C35.4,60.4,32.5,56.6,31.4,52z M60,60
	c-3.3,3.3-7.5,5-12.1,5c-2.1,0-4-0.3-5.8-1L53,53l0,0l0,0l3.1-3.1l6.5,6.5C61.9,57.7,61,58.9,60,60z"/>
</svg>
