<?xml version="1.0" encoding="utf-8"?>
<!-- Generator: Adobe Illustrator 24.3.0, SVG Export Plug-In . SVG Version: 6.00 Build 0)  -->
<svg version="1.1" id="Layer_1" xmlns="http://www.w3.org/2000/svg" xmlns:xlink="http://www.w3.org/1999/xlink" x="0px" y="0px"
	 viewBox="0 0 95.7 95.7" style="enable-background:new 0 0 95.7 95.7;" xml:space="preserve">
<style type="text/css">
	.st0{fill:url(#SVGID_1_);enable-background:new    ;}
	.st1{fill:#FFFFFF;}
</style>
<linearGradient id="SVGID_1_" gradientUnits="userSpaceOnUse" x1="1.35" y1="47.9" x2="94.25" y2="47.9">
	<stop  offset="0" style="stop-color:#8671E8"/>
	<stop  offset="1" style="stop-color:#9685F7"/>
</linearGradient>
<path class="st0" d="M25.8,85.2L10.5,69.9c-12.2-12.2-12.2-31.9,0-44l15.3-15.3c12.2-12.2,31.9-12.2,44,0l15.3,15.3
	c12.2,12.2,12.2,31.9,0,44L69.9,85.2C57.7,97.4,38,97.4,25.8,85.2z"/>
<g>
	<path class="st1" d="M63,28.5h-7.2c-0.9,0-1.4,0.6-1.4,1.4s0.6,1.4,1.4,1.4H63c0.7,0,1.3,0.6,1.3,1.3V40c0,0.9,0.6,1.4,1.4,1.4
		s1.4-0.6,1.4-1.4v-7.2C67.2,30.4,65.3,28.5,63,28.5z"/>
	<path class="st1" d="M30,41.4c0.9,0,1.4-0.6,1.4-1.4v-7.2c0-0.7,0.6-1.3,1.3-1.3H40c0.9,0,1.4-0.6,1.4-1.4s-0.6-1.4-1.4-1.4h-7.2
		c-2.3,0-4.2,1.9-4.2,4.2V40C28.5,40.7,29.1,41.4,30,41.4z"/>
	<path class="st1" d="M40,64.3h-7.2c-0.7,0-1.3-0.6-1.3-1.3v-7.2c0-0.9-0.6-1.4-1.4-1.4s-1.4,0.6-1.4,1.4V63c0,2.3,1.9,4.2,4.2,4.2
		H40c0.9,0,1.4-0.6,1.4-1.4S40.7,64.3,40,64.3z"/>
	<path class="st1" d="M65.8,54.3c-0.9,0-1.4,0.6-1.4,1.4V63c0,0.7-0.6,1.3-1.3,1.3h-7.2c-0.9,0-1.4,0.6-1.4,1.4s0.6,1.4,1.4,1.4H63
		c2.3,0,4.2-1.9,4.2-4.2v-7.2C67.2,54.9,66.6,54.3,65.8,54.3z"/>
	<path class="st1" d="M55.8,49.4c0.9,0,1.4-0.6,1.4-1.4c0-0.9-0.6-1.4-1.4-1.4h-6.5V40c0-0.9-0.6-1.4-1.4-1.4
		c-0.9,0-1.4,0.6-1.4,1.4v6.5H40c-0.9,0-1.4,0.6-1.4,1.4c0,0.9,0.6,1.4,1.4,1.4h6.5v6.5c0,0.9,0.6,1.4,1.4,1.4
		c0.9,0,1.4-0.6,1.4-1.4v-6.5C49.2,49.4,55.8,49.4,55.8,49.4z"/>
</g>
</svg>
