<?xml version="1.0" encoding="utf-8"?>
<!-- Generator: Adobe Illustrator 24.3.0, SVG Export Plug-In . SVG Version: 6.00 Build 0)  -->
<svg version="1.1" id="Layer_1" xmlns="http://www.w3.org/2000/svg" xmlns:xlink="http://www.w3.org/1999/xlink" x="0px" y="0px"
	 viewBox="0 0 95.7 95.7" style="enable-background:new 0 0 95.7 95.7;" xml:space="preserve">
<style type="text/css">
	.st0{fill:url(#SVGID_1_);enable-background:new    ;}
	.st1{fill:#FFFFFF;}
</style>
<linearGradient id="SVGID_1_" gradientUnits="userSpaceOnUse" x1="1.35" y1="47.9" x2="94.25" y2="47.9">
	<stop  offset="0" style="stop-color:#8671E8"/>
	<stop  offset="1" style="stop-color:#9685F7"/>
</linearGradient>
<path class="st0" d="M25.8,85.2L10.5,69.9c-12.2-12.2-12.2-31.9,0-44l15.3-15.3c12.2-12.2,31.9-12.2,44,0l15.3,15.3
	c12.2,12.2,12.2,31.9,0,44L69.9,85.2C57.7,97.4,38,97.4,25.8,85.2z"/>
<g>
	<path class="st1" d="M42.8,67.9c-0.1,0-0.3,0-0.6-0.1c-0.6-0.3-0.9-0.7-0.9-1.3v-8.9h-6.8c-0.4,0-0.9-0.3-1.2-0.6
		C33,56.6,33,56.1,33,55.8l8.3-26.9c0.1-0.6,0.7-1,1.3-1h16.5c0.4,0,0.9,0.3,1.2,0.6c0.3,0.4,0.3,0.9,0.1,1.3L53,46.3h8.1
		c0.6,0,1,0.3,1.3,0.9c0.3,0.6,0.1,1.2-0.3,1.5L43.6,67.4C43.5,67.7,43.1,67.9,42.8,67.9z M36.4,54.7h6.4c0.7,0,1.5,0.6,1.5,1.5v6.9
		L58,49.4h-7c-0.4,0-0.9-0.3-1.2-0.6c-0.3-0.4-0.3-0.9-0.1-1.3L57.1,31H43.8L36.4,54.7z"/>
</g>
</svg>
