<?xml version="1.0" encoding="utf-8"?>
<!-- Generator: Adobe Illustrator 24.3.0, SVG Export Plug-In . SVG Version: 6.00 Build 0)  -->
<svg version="1.1" id="Layer_1" xmlns="http://www.w3.org/2000/svg" xmlns:xlink="http://www.w3.org/1999/xlink" x="0px" y="0px"
	 viewBox="0 0 95.7 95.7" style="enable-background:new 0 0 95.7 95.7;" xml:space="preserve">
<style type="text/css">
	.st0{fill:url(#SVGID_1_);enable-background:new    ;}
	.st1{fill:#FFFFFF;}
</style>
<linearGradient id="SVGID_1_" gradientUnits="userSpaceOnUse" x1="1.4072" y1="47.8587" x2="94.3103" y2="47.8587">
	<stop  offset="0" style="stop-color:#8671E8"/>
	<stop  offset="1" style="stop-color:#9685F7"/>
</linearGradient>
<path class="st0" d="M25.8,85.2L10.5,69.9c-12.2-12.2-12.2-31.9,0-44l15.3-15.3c12.2-12.2,31.9-12.2,44,0l15.3,15.3
	c12.2,12.2,12.2,31.9,0,44L69.9,85.2C57.7,97.4,38,97.4,25.8,85.2z"/>
<g>
	<path class="st1" d="M47.8,66.1c-0.2,0-0.3,0-0.6-0.2C46.3,65.7,23.9,56,27.8,40c1.5-5.9,7-10.5,12.6-10.5c2.9,0,5.5,1.1,7.4,3
		c2-2,4.7-3,7.4-3c5.6,0,11.1,4.6,12.6,10.5C72,56,49.4,65.7,48.4,66C48.3,66.1,48,66.1,47.8,66.1z M40.4,32.5
		c-4.2,0-8.5,3.6-9.7,8.3c-3.2,12.3,13.8,20.8,17.1,22.3c3.3-1.5,20.3-10,17.3-22.3l0,0c-1.1-4.6-5.5-8.2-9.7-8.2
		c-2.4,0-4.9,1.2-6.4,3.2c-0.3,0.3-0.8,0.6-1.2,0.6l0,0c-0.5,0-0.9-0.2-1.2-0.6C45.3,33.7,42.8,32.5,40.4,32.5z"/>
</g>
</svg>
