<?xml version="1.0" encoding="utf-8"?>
<!-- Generator: Adobe Illustrator 24.3.0, SVG Export Plug-In . SVG Version: 6.00 Build 0)  -->
<svg version="1.1" id="Layer_1" xmlns="http://www.w3.org/2000/svg" xmlns:xlink="http://www.w3.org/1999/xlink" x="0px" y="0px"
	 viewBox="0 0 95.7 95.7" style="enable-background:new 0 0 95.7 95.7;" xml:space="preserve">
<style type="text/css">
	.st0{fill:url(#SVGID_1_);enable-background:new    ;}
	.st1{fill:#FFFFFF;}
</style>
<linearGradient id="SVGID_1_" gradientUnits="userSpaceOnUse" x1="1.35" y1="47.9" x2="94.25" y2="47.9">
	<stop  offset="0" style="stop-color:#8671E8"/>
	<stop  offset="1" style="stop-color:#9685F7"/>
</linearGradient>
<path class="st0" d="M25.8,85.2L10.5,69.9c-12.2-12.2-12.2-31.9,0-44l15.3-15.3c12.2-12.2,31.9-12.2,44,0l15.3,15.3
	c12.2,12.2,12.2,31.9,0,44L69.9,85.2C57.7,97.4,38,97.4,25.8,85.2z"/>
<g>
	<path class="st1" d="M63.4,28.2h-31c-2.4,0-4.1,1.9-4.1,4.1v31c0,2.4,1.9,4.1,4.1,4.1h31c2.4,0,4.1-1.9,4.1-4.1v-31
		C67.6,30,65.7,28.2,63.4,28.2z M64.8,63.4c0,0.7-0.6,1.3-1.3,1.3H32.3c-0.7,0-1.3-0.6-1.3-1.3v-31c0-0.7,0.6-1.3,1.3-1.3h31
		c0.7,0,1.3,0.6,1.3,1.3v31C64.6,63.4,64.8,63.4,64.8,63.4z"/>
	<path class="st1" d="M39.7,52.6c-0.7,0-1.3,0.6-1.3,1.3V56c0,0.7,0.6,1.3,1.3,1.3S41,56.8,41,56v-2C41.2,53.2,40.4,52.6,39.7,52.6z
		"/>
	<path class="st1" d="M47.8,46.5c-0.7,0-1.3,0.6-1.3,1.3v8.1c0,0.7,0.6,1.3,1.3,1.3s1.3-0.6,1.3-1.3v-8.1
		C49.3,47,48.7,46.5,47.8,46.5z"/>
	<path class="st1" d="M56,38.4c-0.7,0-1.3,0.6-1.3,1.3V56c0,0.7,0.6,1.3,1.3,1.3s1.3-0.6,1.3-1.3V39.7C57.3,39,56.8,38.4,56,38.4z"
		/>
</g>
</svg>
