<?xml version="1.0" encoding="utf-8"?>
<!-- Generator: Adobe Illustrator 24.3.0, SVG Export Plug-In . SVG Version: 6.00 Build 0)  -->
<svg version="1.1" id="Layer_1" xmlns="http://www.w3.org/2000/svg" xmlns:xlink="http://www.w3.org/1999/xlink" x="0px" y="0px"
	 viewBox="0 0 95.7 95.7" style="enable-background:new 0 0 95.7 95.7;" xml:space="preserve">
<style type="text/css">
	.st0{fill:url(#SVGID_1_);enable-background:new    ;}
	.st1{fill:#FFFFFF;}
</style>
<linearGradient id="SVGID_1_" gradientUnits="userSpaceOnUse" x1="1.35" y1="47.9" x2="94.25" y2="47.9">
	<stop  offset="0" style="stop-color:#8671E8"/>
	<stop  offset="1" style="stop-color:#9685F7"/>
</linearGradient>
<path class="st0" d="M25.8,85.2L10.5,69.9c-12.2-12.2-12.2-31.9,0-44l15.3-15.3c12.2-12.2,31.9-12.2,44,0l15.3,15.3
	c12.2,12.2,12.2,31.9,0,44L69.9,85.2C57.7,97.4,38,97.4,25.8,85.2z"/>
<g>
	<path class="st1" d="M47.9,69.3c-10.7,0-19.4-8.7-19.4-19.4c0-0.5-0.2-13.6,11.2-19.2c0.6-0.2,1.3,0,1.8,0.5s0.5,1.1,0.2,1.8l0,0
		c0,0-0.5,1.1-0.5,3.7c0,1.6,1.3,3,3,3s3-1.3,3-3c0-3.8-2.9-7.5-2.9-7.7c-0.3-0.5-0.3-1.1-0.2-1.6c0.3-0.5,0.8-0.8,1.4-0.8
		c3.8,0.2,10.7,2.4,12.3,9l1.1-1.4c0.3-0.3,0.6-0.5,1.1-0.5l0,0c0.5,0,0.8,0.2,1.1,0.5c5.5,6.3,5.8,13.6,5.8,15.7l0,0l0,0
		C67.2,60.6,58.5,69.3,47.9,69.3z M38.2,35.3c-6.7,5.1-6.6,14.3-6.6,14.6c0,9,7.4,16.4,16.4,16.4s16.4-7.4,16.4-16.4l0,0v-0.2
		c0-1.6-0.2-7.2-4-12.3L58,40c-0.5,0.5-1.1,0.6-1.8,0.5c-0.6-0.3-1-0.8-1-1.4c0.3-5.6-3.7-8-6.6-8.8c0.8,1.8,1.6,4,1.6,6.4
		c0,3.4-2.7,5.9-5.9,5.9s-6.1-2.7-6.1-5.9C38.2,36.1,38.2,35.6,38.2,35.3z"/>
</g>
</svg>
