<?xml version="1.0" encoding="utf-8"?>
<!-- Generator: Adobe Illustrator 24.3.0, SVG Export Plug-In . SVG Version: 6.00 Build 0)  -->
<svg version="1.1" id="Layer_1" xmlns="http://www.w3.org/2000/svg" xmlns:xlink="http://www.w3.org/1999/xlink" x="0px" y="0px"
	 viewBox="0 0 95.7 95.7" style="enable-background:new 0 0 95.7 95.7;" xml:space="preserve">
<style type="text/css">
	.st0{fill:url(#SVGID_1_);enable-background:new    ;}
	.st1{fill:#FFFFFF;}
</style>
<linearGradient id="SVGID_1_" gradientUnits="userSpaceOnUse" x1="1.35" y1="47.9" x2="94.25" y2="47.9">
	<stop  offset="0" style="stop-color:#8671E8"/>
	<stop  offset="1" style="stop-color:#9685F7"/>
</linearGradient>
<path class="st0" d="M25.8,85.2L10.5,69.9c-12.2-12.2-12.2-31.9,0-44l15.3-15.3c12.2-12.2,31.9-12.2,44,0l15.3,15.3
	c12.2,12.2,12.2,31.9,0,44L69.9,85.2C57.7,97.4,38,97.4,25.8,85.2z"/>
<g>
	<path class="st1" d="M47,40.4c-4.1,0-7.5,3.4-7.5,7.5s3.4,7.5,7.5,7.5s7.5-3.4,7.5-7.5S51.1,40.4,47,40.4z M47,52.4
		c-2.5,0-4.6-2-4.6-4.6s2-4.6,4.6-4.6s4.6,2,4.6,4.6S49.6,52.4,47,52.4z"/>
	<path class="st1" d="M65.9,43.3l-2.6-0.9l-0.9-2.2l1.2-2.5c0.5-1.1,0.3-2.5-0.6-3.4L60.5,32c-0.9-0.9-2.3-1.1-3.4-0.6l-2.6,1.2
		l-2.2-0.9L51.4,29c-0.5-1.2-1.5-2-2.8-2h-3.5c-1.2,0-2.3,0.8-2.8,2l-0.9,2.6l-2,0.9l-2.4-1c-1.2-0.6-2.5-0.5-3.4,0.5l-2.5,2.5
		c-0.8,0.9-1.1,2.2-0.5,3.4l1.2,2.6L31,42.6l-2.6,0.9c-1.2,0.5-2,1.5-2,2.8v3.5c0,1.2,0.8,2.3,2,2.8l2.6,0.9l0.9,2.2l-1.2,2.5
		c-0.5,1.1-0.3,2.5,0.6,3.4l2.3,2.3c0.9,0.9,2.3,1.1,3.4,0.6l2.6-1.2l2.2,0.9l0.9,2.6c0.5,1.2,1.5,2,2.8,2H49c1.2,0,2.3-0.8,2.8-2
		l0.9-2.6l2.2-0.9l2.6,1.2c1.1,0.5,2.5,0.3,3.4-0.6l2.5-2.5c0.9-0.9,1.1-2.3,0.6-3.4l-1.2-2.6l0.9-2.2l2.6-0.9
		c1.1-0.3,1.8-1.5,1.8-2.8V46C67.7,44.9,67,43.8,65.9,43.3z M64.8,49.6L61,51l-1.8,4.5l1.7,3.7l-2.5,2.5l-3.7-1.8l-4.5,1.8l-1.4,3.8
		h-3.5l-1.4-3.8l-4.5-1.8l-3.7,1.7l-2.5-2.3l1.8-3.7L33.3,51l-3.8-1.4v-3.5l3.8-1.4l1.8-4.5l-1.8-3.7l2.5-2.5l3.7,1.7l4.5-1.8
		l1.4-3.8h3.5l1.4,3.8l4.5,1.8l3.7-1.7l2.5,2.5l-1.7,3.7l1.8,4.5l3.8,1.4L64.8,49.6L64.8,49.6z"/>
</g>
</svg>
