<?xml version="1.0"?><svg fill="#000000" xmlns="http://www.w3.org/2000/svg"  viewBox="0 0 24 24" width="50px" height="50px">    <path d="M 5 3 C 3.895 3 3 3.895 3 5 L 3 19 C 3 20.105 3.895 21 5 21 L 19 21 C 20.105 21 21 20.105 21 19 L 21 5 C 21 3.895 20.105 3 19 3 L 5 3 z M 5 5 L 19 5 L 19 19 L 5 19 L 5 5 z M 11.791016 8.8574219 C 11.201016 8.8524219 10.700969 8.8600469 10.417969 8.9980469 C 10.229969 9.0900469 10.084828 9.2965937 10.173828 9.3085938 C 10.282828 9.3225937 10.529109 9.3746875 10.662109 9.5546875 C 10.831109 9.7856875 10.826172 10.304688 10.826172 10.304688 C 10.826172 10.304687 10.922656 11.732156 10.597656 11.910156 C 10.374656 12.032156 10.069109 11.784437 9.4121094 10.648438 C 9.0751094 10.065437 8.8222656 9.421875 8.8222656 9.421875 C 8.8222656 9.421875 8.7725469 9.3003281 8.6855469 9.2363281 C 8.5785469 9.1583281 8.4296875 9.1328125 8.4296875 9.1328125 L 6.859375 9.140625 C 6.859375 9.140625 6.6221563 9.1411406 6.5351562 9.2441406 C 6.4581563 9.3361406 6.5292969 9.5175781 6.5292969 9.5175781 C 6.5292969 9.5175781 7.7602969 12.386844 9.1542969 13.839844 C 10.433297 15.171844 11.882812 15.050781 11.882812 15.050781 L 12.541016 15.050781 C 12.541016 15.050781 12.740797 15.062125 12.841797 14.953125 C 12.934797 14.852125 12.931641 14.695312 12.931641 14.695312 C 12.931641 14.695312 12.919125 13.811641 13.328125 13.681641 C 13.732125 13.553641 14.249828 14.535109 14.798828 14.912109 C 15.212828 15.198109 15.529297 15.136719 15.529297 15.136719 L 16.998047 15.117188 C 16.998047 15.117188 17.765297 15.068938 17.404297 14.460938 C 17.374297 14.410937 17.1925 14.013312 16.3125 13.195312 C 15.3905 12.339313 15.514047 12.477094 16.623047 10.996094 C 17.299047 10.095094 17.569375 9.5445938 17.484375 9.3085938 C 17.403375 9.0825937 16.90625 9.1425781 16.90625 9.1425781 L 15.253906 9.1523438 C 15.253906 9.1523438 15.130062 9.1344531 15.039062 9.1894531 C 14.950063 9.2434531 14.892578 9.3671875 14.892578 9.3671875 C 14.892578 9.3671875 14.63125 10.066156 14.28125 10.660156 C 13.54625 11.913156 13.251859 11.978391 13.130859 11.900391 C 12.850859 11.720391 12.921875 11.174156 12.921875 10.785156 C 12.921875 9.5711562 13.1045 9.0645938 12.5625 8.9335938 C 12.3825 8.8895937 12.251016 8.8624219 11.791016 8.8574219 z"/></svg>